<svg xmlns="http://www.w3.org/2000/svg" width="16" height="16" fill="none">
  <mask id="a" width="14" height="14" x="1" y="1" maskUnits="userSpaceOnUse" style="mask-type:luminance">
    <path fill="#fff" stroke="#fff" stroke-linecap="round" stroke-linejoin="round" d="M13 2H3a1 1 0 0 0-1 1v10a1 1 0 0 0 1 1h10a1 1 0 0 0 1-1V3a1 1 0 0 0-1-1Z"/>
    <path stroke="#000" stroke-linecap="round" stroke-linejoin="round" d="M7 5.667H4.333v4.666h2.5M4.333 8h2.5m1.834-1.667v4-2.166a1.5 1.5 0 1 1 3 0v2.166"/>
  </mask>
  <g mask="url(#a)">
    <path fill="url(#b)" d="M0 0h16v16H0V0Z"/>
  </g>
  <defs>
    <linearGradient id="b" x1="-.427" x2="21.965" y1="7.318" y2="5.199" gradientUnits="userSpaceOnUse">
      <stop stop-color="#4DC274"/>
      <stop offset="1" stop-color="#BEE8CC"/>
    </linearGradient>
  </defs>
</svg>
